<?xml version="1.0" encoding="utf-8"?>
<!-- Generator: Adobe Illustrator 24.2.3, SVG Export Plug-In . SVG Version: 6.00 Build 0)  -->
<svg version="1.1" id="Layer_1" xmlns="http://www.w3.org/2000/svg" xmlns:xlink="http://www.w3.org/1999/xlink" x="0px" y="0px"
	 viewBox="0 0 65.11 87.81" style="enable-background:new 0 0 65.11 87.81;" xml:space="preserve">
<style type="text/css">
	.st0{fill:#B1CEFC;}
	.st1{fill:#0659FF;}
	.st2{fill:#FFFFFF;}
</style>
<g>
	<path class="st0" d="M37.95,47.21l12.37-10.27c0.98-0.81,0.96-2.31-0.03-3.1l-12.27-9.77l-3.22,2.55l10.72,8.54
		c0.18,0.14,0.18,0.42,0.01,0.57l-10.72,8.9L37.95,47.21z"/>
	<path class="st0" d="M31.19,52.83l-11.75,9.76c-0.85,0.71-2.11,0.59-2.82-0.26l0,0c-0.71-0.85-0.59-2.11,0.26-2.82l11.18-9.28
		L31.19,52.83z"/>
	<path class="st0" d="M31.16,18.6L18.58,8.58c-0.86-0.69-2.12-0.55-2.81,0.32l0,0c-0.69,0.86-0.55,2.12,0.32,2.81l11.86,9.45
		L31.16,18.6z"/>
	<path class="st1" d="M46.52,62.59L15.64,36.94c-0.98-0.81-0.96-2.31,0.03-3.1l31.7-25.25c0.86-0.69,2.12-0.55,2.81,0.32l0,0
		c0.69,0.86,0.55,2.12-0.32,2.81L20.44,35.16c-0.18,0.14-0.18,0.41-0.01,0.56l28.65,23.79c0.85,0.71,0.97,1.97,0.26,2.82l0,0
		C48.63,63.17,47.37,63.29,46.52,62.59z"/>
</g>
<g>
	<path class="st2" d="M15.71,67.68v6.55c0,0.91-0.26,1.61-0.79,2.12c-0.53,0.5-1.23,0.76-2.11,0.76c-0.89,0-1.61-0.26-2.16-0.78
		c-0.55-0.52-0.82-1.24-0.82-2.17h1.87c0.01,0.4,0.1,0.71,0.29,0.94s0.45,0.33,0.79,0.33c0.34,0,0.6-0.11,0.78-0.32
		s0.27-0.51,0.27-0.88v-6.55H15.71z"/>
	<path class="st2" d="M18.06,69.86c0.41-0.73,0.98-1.29,1.7-1.7s1.52-0.61,2.41-0.61c1.04,0,1.96,0.27,2.74,0.8
		c0.78,0.53,1.33,1.27,1.64,2.22H24.4c-0.21-0.45-0.51-0.78-0.9-1s-0.84-0.33-1.34-0.33c-0.54,0-1.03,0.13-1.45,0.38
		s-0.75,0.61-0.99,1.08c-0.24,0.46-0.35,1.01-0.35,1.63c0,0.61,0.12,1.16,0.35,1.62c0.24,0.47,0.57,0.83,0.99,1.08
		s0.91,0.38,1.45,0.38c0.51,0,0.96-0.11,1.34-0.34s0.69-0.56,0.9-1.01h2.15c-0.31,0.95-0.86,1.7-1.64,2.23s-1.7,0.79-2.75,0.79
		c-0.89,0-1.69-0.2-2.41-0.61s-1.28-0.97-1.7-1.69c-0.41-0.72-0.62-1.54-0.62-2.46C17.44,71.41,17.64,70.59,18.06,69.86z"/>
	<path class="st2" d="M37.18,68.25c0.74,0.38,1.32,0.93,1.72,1.64c0.41,0.71,0.61,1.53,0.61,2.47s-0.2,1.75-0.61,2.45
		c-0.41,0.7-0.98,1.24-1.72,1.62C36.44,76.81,35.58,77,34.6,77h-3.26v-9.33h3.26C35.58,67.68,36.44,67.87,37.18,68.25z M36.8,74.61
		c0.53-0.53,0.8-1.29,0.8-2.26s-0.27-1.73-0.8-2.28c-0.53-0.55-1.29-0.82-2.27-0.82h-1.32v6.16h1.32
		C35.51,75.41,36.27,75.15,36.8,74.61z"/>
	<path class="st2" d="M42.79,69.19v2.34h3.14v1.48h-3.14v2.47h3.54V77h-5.41v-9.34h5.41v1.52H42.79z"/>
	<path class="st2" d="M56.41,67.68L52.99,77h-2.27l-3.42-9.33h2l2.57,7.42l2.55-7.42H56.41z"/>
</g>
</svg>
